<?xml version="1.0" standalone="no"?>
<!DOCTYPE svg PUBLIC "-//W3C//DTD SVG 20010904//EN"
 "http://www.w3.org/TR/2001/REC-SVG-20010904/DTD/svg10.dtd">
<svg version="1.0" xmlns="http://www.w3.org/2000/svg"
 width="16.000000pt" height="16.000000pt" viewBox="0 0 16.000000 16.000000"
 preserveAspectRatio="xMidYMid meet">
<metadata>
Created by potrace 1.11, written by Peter Selinger 2001-2013
</metadata>
<g transform="translate(0.000000,16.000000) scale(0.006154,-0.006154)"
fill="#000000" stroke="none">
<path d="M1750 2035 c-132 -30 -256 -119 -308 -221 -63 -126 -50 -286 32 -391
59 -76 128 -123 323 -220 210 -104 267 -146 279 -208 14 -78 -18 -140 -93
-175 -41 -19 -59 -22 -133 -17 -102 5 -164 31 -264 107 -37 28 -69 50 -70 48
-1 -1 -33 -41 -69 -86 -37 -46 -67 -90 -67 -97 0 -20 133 -120 203 -154 92
-44 172 -61 284 -61 162 0 271 40 364 132 90 90 134 227 112 353 -15 87 -47
150 -108 211 -60 60 -130 103 -290 175 -158 71 -193 91 -234 133 -66 68 -47
162 44 213 83 46 216 38 281 -19 30 -27 34 -36 34 -79 l0 -49 120 0 120 0 0
93 c0 67 -5 103 -19 132 -20 44 -81 104 -133 131 -105 55 -287 76 -408 49z"/>
<path d="M500 1916 l0 -116 184 0 c145 0 186 -3 195 -14 9 -10 11 -126 9 -438
-3 -422 -3 -423 -26 -460 -42 -67 -115 -96 -200 -77 -90 19 -141 95 -142 212
l0 67 -136 0 -137 0 5 -97 c8 -159 59 -266 164 -346 76 -58 143 -80 263 -85
126 -5 205 13 289 67 99 64 150 137 177 253 12 51 15 156 15 558 0 532 0 524
-53 564 -27 20 -42 21 -318 24 l-289 4 0 -116z"/>
</g>
</svg>
